<?xml version="1.0"?>
<svg width="3157" height="2175" viewBox="0 0 3157 2175" fill="none" xmlns="http://www.w3.org/2000/svg">
<g id="kz">
<path d="M2140.64 429.237L2117.5 620.525L1746.47 787.641L1665.49 729.001L1603.42 756.978L1463.78 617.466L1507.93 448.485L1659.76 469.972L1757.55 258.988L1944.66 305.84L2140.64 429.237Z" fill="white" id="1"/>
<path d="M775.05 1533.77L758.435 1399.63L640.468 1235.05L629.51 998.848L536.467 931.33L603.045 730.792L756.734 652.381L921.498 650.815L1023.17 724.226L1169.14 622.539L1267.48 812.932L1234.1 959.755L1350.08 1083L1264.48 1228.04L1142.08 1135.6L958.605 1409.85L959.752 1503.11L775.05 1533.77Z" fill="white" id="2"/>
<path d="M2288.47 1865.54L2247.57 1685.89L2156.07 1576.96L2144.44 1408.13L2204.25 1329.2L2320.6 1313.91L2317.31 1465.65L2409.68 1682.46L2478.04 1722.15L2661.95 1733.34L2682.49 1829.73L2615.39 1941.04L2499.88 1870.69L2288.47 1865.54Z" fill="white" id="3"/>
    <g/>
<path d="M536.467 931.331L629.51 998.849L640.468 1235.05L758.435 1399.63L662.424 1358.74L471.866 1444.76L481.479 1307.04L340.766 1257.65L178.098 1353L135.097 1197.07L21.6804 1145.37L2.9292 1062.79L203.06 1125.45L331.628 1013.69L447.023 1044.13L536.467 931.331Z" fill="white" id="5"/>
<path d="M2799.66 1476.55L2768.84 1394.26L2557.36 1245.87L2419.02 1234.38L2371.39 927.749L2439.08 777.793L2563.02 557.036L2616.74 678.269L2745.62 698.786L2724.02 816.96L2905.44 1051.59L2871.97 1227.36L2799.66 1476.55Z" fill="white" id="6"/>
<path d="M2144.44 1408.13L2156.07 1576.96L2247.57 1685.89L2288.47 1865.54L2168.85 1823.61L2100.37 1930.22L1975.36 1880.83L1896.87 1957.75L1833.78 1831.74L1751.69 1408.13L1933.03 1408.06L2144.44 1408.13Z" fill="white" id="7"/>
<path d="M1264.48 1228.04L1350.09 1083L1408.75 969.305L1516.31 955.652L1623.16 825.391L1668.1 934.166L1782.35 1013.62L1957.72 925.362L1993.24 1139.48L1937.19 1160.89L1933.03 1408.06L1751.69 1408.13L1604.18 1408.43L1468.01 1357.18L1264.48 1228.04Z" fill="white" id="8"/>
<path d="M1507.93 448.485L1463.78 617.466L1603.42 756.978L1665.49 729.001L1623.16 825.391L1516.31 955.652L1408.75 969.305L1350.09 1083L1234.1 959.755L1267.49 812.932L1169.14 622.539L1109.05 271.522L1517.38 120.148L1507.93 448.485Z" fill="white" id="9"/>
<path d="M959.753 1503.1L958.605 1409.85L1142.08 1135.6L1264.48 1228.04L1468.01 1357.18L1604.18 1408.43L1658.97 1829.2L1519.83 1945.07L1433.04 1741.47L1197.11 1783.25L1126.1 1667.83L959.753 1503.1Z" fill="white" id="10"/>
<path d="M758.435 1399.63L775.05 1533.77L720.022 1557.34L720.102 2105.92L576.738 1954.17L479.462 1989.68L395.121 1879.56L269.678 1610.46L356.669 1504L471.866 1444.76L662.424 1358.74L758.435 1399.63Z" fill="white" id="11"/>
<path d="M2140.64 429.237L1944.66 305.84L1757.55 258.988L1659.76 469.972L1507.93 448.485L1517.38 120.148L1685.59 71.3557L1745.36 0.629883L1887.74 20.8479L1919.78 199.08L2099.89 297.783L2140.64 429.237Z" fill="white" id="12"/>
    <g/>
<path d="M2117.5 620.525L2140.64 429.237L2099.89 297.782L2274.23 199.527L2450.43 322.85L2563.02 557.036L2439.08 777.793L2248.56 783.985L2145.66 722.212L2117.5 620.525Z" fill="white" id="14"/>
    <g/>
<path d="M1751.69 1408.13L1833.78 1831.74L1896.88 1957.75L1714.59 2175L1559.35 2116.81L1519.83 1945.07L1658.96 1829.2L1604.18 1408.43L1751.69 1408.13Z" fill="white" id="16"/>
<path d="M603.045 730.792L536.467 931.33L447.023 1044.13L331.628 1013.69L203.06 1125.45L2.92931 1062.78L0.160156 831.583L137.352 730.269L285.937 572.255L512.652 585.311L603.045 730.792Z" fill="white" id="17"/>
<path d="M1665.49 729.001L1746.47 787.641L2117.5 620.525L2145.66 722.212L2248.56 783.985L2439.08 777.793L2371.39 927.75L2419.02 1234.38L2320.6 1313.91L2204.25 1329.2L2144.44 1408.13L1933.03 1408.06L1937.19 1160.89L1993.24 1139.48L1957.72 925.362L1782.35 1013.62L1668.1 934.166L1623.16 825.391L1665.49 729.001Z" fill="white" id="18"/>
<path d="M2661.95 1733.34L2478.04 1722.15L2409.68 1682.46L2317.31 1465.65L2320.6 1313.91L2419.02 1234.38L2557.36 1245.87L2768.84 1394.26L2799.66 1476.55L2651.07 1549.51L2661.95 1733.34Z" fill="white" id="19"/>
<path d="M2871.97 1227.36L2905.44 1051.59L2724.02 816.961L2745.62 698.786L2922.49 680.657L3031.68 866.946L3157 878.734L3140.27 1028.91L3073.06 1054.35L3069.53 1226.39L3001.18 1283.99L2871.97 1227.36Z" fill="white" id="20"/>
</g>
</svg>
