<?xml version="1.0" encoding="utf-8"?>
<!-- Generator: Adobe Illustrator 27.0.0, SVG Export Plug-In . SVG Version: 6.00 Build 0)  -->
<svg version="1.1" id="Layer_1" xmlns="http://www.w3.org/2000/svg" xmlns:xlink="http://www.w3.org/1999/xlink" x="0px" y="0px"
	 viewBox="0 0 135.28 85.89" style="enable-background:new 0 0 135.28 85.89;" xml:space="preserve">
<style type="text/css">
	.st0{fill:#1F4E78;}
	.st1{fill:#992D47;}
</style>
<path class="st0" d="M106.58,29.08c0,4.56-5.22,4.8-7.08,4.8h-6.07v-9.49h8.39C104.26,24.39,106.58,25.74,106.58,29.08
	 M115.02,28.26c0-6.1-4.37-11.13-11.95-11.13H84.9v36.94h8.53v-13.2h3.82c2.28,0,4.93,3.13,10.65,13.2h10.65
	c-6.89-11.61-9.62-14.36-12.11-15.26C112.15,38.52,115.02,33.56,115.02,28.26 M80.77,17.13v7.47H62.4v9.31h16.51v6.89H62.4v13.27
	h-8.55V17.13H80.77z M38.18,38.55H27.23c1.7-5.14,3.39-10.12,4.82-13.99h1.38C34.54,28.47,36.48,33.51,38.18,38.55 M51.93,54.07
	L39.4,17.13H26.13L13.55,54.07h8.42l2.79-8.16h15.86l2.86,8.16H51.93z"/>
<rect x="11.55" y="60.38" class="st1" width="108.92" height="8.49"/>
</svg>
